<svg xmlns="http://www.w3.org/2000/svg" viewBox="0 0 161 162" style="enable-background:new 0 0 161 162" xml:space="preserve"><path d="M80.78 161.66c-44.62 0-80.8-36.17-80.8-80.8 0-44.62 36.17-80.8 80.8-80.8 44.62 0 80.8 36.17 80.8 80.8 0 44.63-36.18 80.8-80.8 80.8z" style="fill:#fff"/><path d="m113.54 34.77-15.93 1.88.12 8.18c.14.85.24 3.2.24 7.04v5.03l.36 7.83-.19 6.12.27 6.19-.07 6.36.17 4.68c0 8.97-.58 15.92-1.71 20.89-1.16 4.95-2.99 9-5.48 12.15-.8 1.01-1.59 1.98-2.34 2.84 1.96-5.24 1.83-11.04 1.69-16.73-.02-1.43-.07-2.86-.07-4.29V30.1h23.05c.12.93.17 1.75.17 2.25-.01.51-.11 1.33-.28 2.42zM75.38 132.65c-2.04 1.82-3.2 2.69-5.25 3.75-.02 0-.03.02-.05.02-3 1.13-5.98 1.69-8.93 1.69-2.81 0-5.25-.97-7.3-2.93-2.07-1.98-3.11-4.26-3.11-6.87 0-2.12.73-3.89 2.2-5.29 1.47-1.4 3.2-2.1 5.21-2.1 1.91 0 3.89 1.18 5.88 3.56 1.61 2.81 3.03 4.59 4.27 5.36.69.27 1.23.41 1.63.41.92 0 1.71-.48 2.34-1.43.92-1.37 1.39-3.62 1.39-6.74v-3.56c0-2.17.08-4.23.24-6.19.08-1.13.13-2.07.13-2.84 0-.35-.05-1.72-.13-4.08l.06-4.51-.15-22.6c0-1.2-.03-2.15-.06-2.89-.13-1.59-.18-3.14-.18-4.62l.05-13.06-.29-11.07-.3-3.99c0-2.97-.03-4.83-.06-5.58l-12.28-1.34-.3-5.17h21.6v72.28c0 1.43.03 2.87.05 4.3.14 9.95.28 19.32-6.66 25.49z"/></svg>