<svg xmlns="http://www.w3.org/2000/svg" viewBox="0 0 161 162" style="enable-background:new 0 0 161 162" xml:space="preserve"><path style="fill:#fff" d="M-.28.1h161.59v161.59H-.28z"/><path d="m118.21 25.36-17.93 2.12.14 9.21c.16.96.27 3.6.27 7.92v5.66l.41 8.81-.22 6.89.3 6.96-.08 7.16.19 5.26c0 10.09-.65 17.93-1.93 23.52-1.3 5.57-3.37 10.13-6.17 13.68-.9 1.14-1.79 2.22-2.64 3.2 2.2-5.9 2.07-12.43 1.9-18.83-.03-1.61-.08-3.22-.08-4.83v-82h25.95c.14 1.05.19 1.97.19 2.53-.01.59-.11 1.51-.3 2.74zM75.25 135.55c-2.3 2.05-3.61 3.03-5.91 4.22-.02 0-.04.02-.05.02-3.37 1.27-6.73 1.9-10.05 1.9-3.16 0-5.91-1.09-8.22-3.3-2.33-2.23-3.5-4.79-3.5-7.74 0-2.39.83-4.38 2.48-5.96s3.61-2.37 5.87-2.37c2.15 0 4.38 1.33 6.62 4 1.81 3.16 3.41 5.17 4.81 6.03.77.31 1.38.47 1.83.47 1.04 0 1.92-.54 2.64-1.62 1.04-1.54 1.56-4.07 1.56-7.59v-4c0-2.44.09-4.76.27-6.96.09-1.27.14-2.33.14-3.2 0-.39-.05-1.94-.14-4.6l.07-5.08-.2-25.42c0-1.35-.04-2.42-.07-3.25-.14-1.79-.2-3.54-.2-5.21l.05-14.7-.32-12.46-.34-4.49c0-3.34-.04-5.44-.07-6.28L58.7 26.47l-.34-5.82h24.32v81.37c0 1.62.04 3.23.05 4.85.17 11.18.33 21.74-7.48 28.68z"/></svg>