<svg version="1.1" id="Capa_1" xmlns="http://www.w3.org/2000/svg" x="0" y="0" viewBox="0 0 488.56 100" style="enable-background:new 0 0 488.56 100" xml:space="preserve"><style>.st0{fill:#1a1a1a}</style><path class="st0" d="M0 6.41h10.87V22.5h11.3v8.91h-11.3v33.7c0 1.67.49 2.88 1.47 3.64.98.76 2.63 1.14 4.95 1.14h4.89v8.7c-2.39.22-4.6.33-6.63.33-5.29 0-9.2-1.01-11.74-3.04C1.27 73.84 0 70.58 0 66.09V6.41zM58.91 21.52c6.16 0 10.98 1.72 14.46 5.16 3.48 3.44 5.22 8.32 5.22 14.62v37.61H67.72V42.83c0-7.83-3.95-11.74-11.85-11.74-3.62 0-6.89 1.38-9.78 4.13-2.9 2.83-4.35 6.85-4.35 12.07v31.63H30.87V0h10.87v30.54c4.27-6.01 10-9.02 17.17-9.02zM137.01 50v3.15H94.73c.51 5.51 2.14 9.66 4.89 12.45 2.75 2.79 6.48 4.18 11.2 4.18 7.1 0 11.74-3.11 13.91-9.35h10.98c-1.52 5.73-4.48 10.24-8.86 13.53-4.39 3.3-9.8 4.95-16.25 4.95-8.04 0-14.53-2.68-19.46-8.04-4.93-5.36-7.39-12.46-7.39-21.3s2.46-15.94 7.39-21.31c4.93-5.36 11.34-8.04 19.24-8.04 8.26 0 14.78 2.79 19.57 8.37 4.71 5.58 7.06 12.71 7.06 21.41zm-26.63-20.65c-4.28 0-7.77 1.3-10.49 3.91-2.72 2.61-4.4 6.38-5.05 11.3h30.98c-.51-4.57-2.12-8.24-4.84-11.03-2.72-2.79-6.25-4.18-10.6-4.18zM147.83 100c-1.16 0-3.41-.07-6.74-.22V82.39h1.85c1.02 0 1.81-.05 2.39-.16.58-.11 1.2-.33 1.85-.65.65-.33 1.12-.89 1.41-1.68.29-.8.43-1.85.43-3.15V20.22h22.61V80c0 7.1-1.87 12.21-5.6 15.33-3.73 3.11-9.8 4.67-18.2 4.67zm23.8-86.96h-22.61V0h22.61v13.04zM232.39 70.87c-5.94 5.36-13.66 8.04-23.15 8.04-9.57 0-17.25-2.68-23.04-8.04-5.87-5.36-8.8-12.43-8.8-21.2s2.93-15.87 8.8-21.3c5.94-5.36 13.62-8.04 23.04-8.04s17.1 2.68 23.04 8.04c5.87 5.43 8.8 12.54 8.8 21.3.01 8.77-2.89 15.84-8.69 21.2zM200 49.78c0 7.83 3.08 11.74 9.24 11.74s9.24-3.91 9.24-11.74c0-3.98-.82-6.99-2.45-9.02-1.63-2.03-3.9-3.04-6.79-3.04-6.16 0-9.24 4.02-9.24 12.06zM282.18 52.5V20.22h22.61v57.39h-22.17v-8.15h-.33c-3.48 6.3-9.28 9.46-17.39 9.46-12.76 0-19.13-7.54-19.13-22.61V20.22h22.61v32.39c0 4.93 2.14 7.39 6.41 7.39 2.17 0 3.95-.63 5.33-1.9 1.37-1.27 2.06-3.14 2.06-5.6zM349.9 20.22c1.52 0 2.86.11 4.02.33v20.33h-5.22c-8.99 0-13.48 4.93-13.48 14.78v23.26h-22.61V21.09h22.17v11.09c1.96-7.98 7-11.96 15.12-11.96zM399.9 20.22c12.75 0 19.13 7.54 19.13 22.61v36.09h-22.61v-32.4c0-4.93-2.14-7.39-6.41-7.39-2.17 0-3.95.64-5.33 1.9-1.38 1.27-2.06 3.14-2.06 5.6v32.28H360V21.52h22.17v8.15h.32c3.49-6.3 9.29-9.45 17.41-9.45zM462.07 31.74l3.34-11.52h23.15l-22.47 58.26c-3.41 8.84-7.28 14.64-11.63 17.39-4.42 2.75-11.12 4.13-20.11 4.13-2.68 0-5.98-.07-9.89-.22V82.39h10.22c4.57 0 6.85-1.78 6.85-5.33 0-1.23-.33-2.64-.98-4.24l-21.03-52.61h24.13l3.53 11.52c2.03 7.17 4.42 16.3 7.17 27.39 2.97-10.64 5.55-19.77 7.72-27.38z"/></svg>