<svg xmlns="http://www.w3.org/2000/svg" viewBox="0 0 473 204" style="enable-background:new 0 0 473 204" xml:space="preserve"><path d="m82.34 56.02-18.97 2.67.14 11.6c.17 1.21.29 4.54.29 9.98v7.13l.43 11.1-.23 8.69.32 8.78-.09 9.03.2 6.63c0 12.72-.69 22.59-2.04 29.63-1.38 7.02-3.56 12.76-6.53 17.23-.95 1.44-1.9 2.8-2.79 4.03 2.33-7.43 2.18-15.66 2.01-23.73-.03-2.03-.09-4.06-.09-6.09V49.38h27.45c.14 1.32.2 2.48.2 3.19.01.73-.1 1.9-.3 3.45zM39.6 195.29c-2.92 2.6-4.58 3.85-7.5 5.36-.02 0-.05.02-.07.02-4.29 1.62-8.55 2.42-12.76 2.42-4.01 0-7.5-1.39-10.44-4.19-2.96-2.83-4.44-6.09-4.44-9.82 0-3.03 1.05-5.56 3.15-7.57 2.1-2.01 4.58-3.01 7.45-3.01 2.74 0 5.56 1.69 8.41 5.08 2.3 4.01 4.33 6.56 6.11 7.66.98.39 1.76.59 2.33.59 1.32 0 2.44-.68 3.35-2.05 1.32-1.96 1.98-5.17 1.98-9.64v-5.08c0-3.1.11-6.04.34-8.84.11-1.62.18-2.96.18-4.06 0-.5-.07-2.46-.18-5.84l.09-6.45-.25-32.28c0-1.71-.05-3.08-.09-4.13-.18-2.28-.25-4.49-.25-6.61l.07-18.67-.41-15.82-.43-5.7c0-4.24-.05-6.91-.09-7.98L18.6 56.77l-.43-7.39h30.89v103.33c0 2.05.05 4.1.07 6.15.18 14.21.39 27.61-9.53 36.43zM101.88 28.66c3.83-1.62 6.6-3.21 8.31-4.77 1.71-1.56 3.53-4.09 5.48-7.59h2.73c.29.85.44 1.74.44 2.68 0 1.69-.02 3.01-.05 3.95l-.15 2.88c0 .16.02.54.05 1.12l1.12.05c.16 0 1.69-.06 4.58-.19.23 0 1.45-.03 3.66-.1.19.87.29 1.64.29 2.32 0 .74-.11 1.61-.34 2.61-1.07.19-1.88.29-2.44.29-.26 0-.78-.06-1.56-.19h-2.53l-.88-.05-2.34.15-.1 18.62c-.03 3.61.04 5.86.22 6.75.18.89.56 1.75 1.15 2.56.75.36 1.58.54 2.49.54.88 0 1.53-.08 1.95-.24.42-.16 1.14-.63 2.14-1.41.19-.16.5-.39.93-.68.78.62 1.41 1.23 1.9 1.85l.19.58c-1.14 1.79-2.74 3.19-4.8 4.22-2.06 1.02-4.27 1.54-6.6 1.54-3.02 0-5.48-.96-7.36-2.87-1.88-1.91-2.83-4.88-2.83-8.91l.19-8.57V31.89l-1.51-.1-3.51.1-.63-.24c-.19-.29-.29-.56-.29-.82 0-.19.03-.92.1-2.17z"/><path d="M129.06 62.55c.52-.13 1.97-.32 4.34-.58 1.04-.13 1.69-.36 1.95-.68.32-.49.49-1.64.49-3.46v-3.46l.15-3.66v-4l.05-.97-.05-2.44.1-.83.19-17.69v-1.36c0-6.04-.16-9.78-.49-11.21-.19-.84-.66-1.51-1.39-2s-2.45-.94-5.14-1.36V7.81c0-.49.03-1.09.1-1.8l4.11-.88c.81-.23 1.6-.42 2.35-.58 1.82-.39 4.12-1.2 6.89-2.44.49-.29.95-.54 1.37-.73l2.64.19-.1 29.15c2.95-2.34 5.64-4 8.08-4.97 2.43-.97 4.96-1.46 7.59-1.46 2.5 0 4.66.45 6.5 1.34 1.83.89 3.25 2 4.26 3.31 1.01 1.32 1.72 2.92 2.14 4.8.29 1.27.44 3.7.44 7.31v3.12l.05 6.87-.24 9.94c.13.29.28.49.44.58.39.16 1.35.39 2.88.68.88.16 1.56.31 2.05.44.26.48.39.87.39 1.16l-.05.39c-.07.35-.1.89-.1 1.6l-1.12.07c-.49 0-1.45-.06-2.88-.19-2.73-.26-5.02-.39-6.87-.39-1.2 0-2.81.07-4.83.19-1.43.07-3.25.1-5.46.1-.36 0-.68-.05-.97-.15v-1.17l-.1-.63c0-.26.08-.62.24-1.07.75-.36 1.62-.59 2.61-.71.99-.11 1.93-.24 2.8-.37.13-.62.21-1.01.24-1.17l.24-7.12V41.3c0-3.54-.19-5.94-.58-7.19-.39-1.25-1.2-2.27-2.44-3.07-1.24-.8-2.73-1.19-4.48-1.19-2.05 0-4.04.48-5.97 1.44-1.93.96-3.58 2.09-4.95 3.39v8.53c0 4.68-.04 8.19-.12 10.53-.05 1.4-.08 2.27-.08 2.63 0 2.24.15 3.79.44 4.63.13.39.49.75 1.07 1.07 1.2.1 2.2.15 3 .17.8.02 1.44.09 1.93.22.06.8.1 1.36.1 1.68 0 .45-.07.99-.19 1.63l-5.42-.22c-2.05-.15-3.89-.22-5.52-.22l-6.84.34-4.79-.05c-.33-.45-.67-1.27-1.02-2.44v-.63zM183.53 39.76c.84-2.77 1.59-4.6 2.24-5.51 1.82-2.67 3.76-4.75 5.82-6.25 2.06-1.5 3.92-2.49 5.58-2.98 2.14-.62 3.88-.93 5.22-.93 3.05 0 5.52.24 7.41.71 1.88.47 3.46 1.14 4.73 2.02 1.82 1.27 3.28 2.55 4.39 3.85 1.1 1.3 2.01 2.82 2.71 4.58.7 1.75 1.08 3.88 1.15 6.38l-5.41-.09c-1.49 0-4.78-.14-9.85-.43-1.88-.16-3.18-.24-3.9-.24-.23 0-1.98.03-5.26.1h-4.19c-.07.46-.1.85-.1 1.17 0 1.73.21 3.54.63 5.45.42 1.91 1.06 3.58 1.9 5.03.84 1.45 1.89 2.7 3.14 3.74 1.25 1.04 2.54 1.79 3.88 2.25l2.83.93c2.5 0 4.18-.08 5.02-.24 1.56-.32 2.93-.74 4.12-1.24s2.62-1.36 4.31-2.56c1.17.85 2.14 1.61 2.92 2.29-2.86 3.15-5.82 5.43-8.9 6.85-3.07 1.41-6.51 2.12-10.31 2.12-2.57 0-4.66-.23-6.29-.68-2.18-.58-4.14-1.48-5.9-2.68-1.75-1.2-3.27-2.7-4.53-4.49-1.27-1.79-2.21-3.63-2.83-5.51-.81-2.47-1.22-4.46-1.22-5.95.01-2.86.23-5.41.69-7.69zm28.32-2.07c-.03-1.83-.39-3.57-1.07-5.24-.68-1.67-1.74-2.96-3.17-3.89-1.43-.93-2.88-1.4-4.34-1.4-2.18 0-4.14.96-5.9 2.88-1.75 1.92-2.75 4.52-2.97 7.8l11.11.1c.71 0 1.72-.05 3.02-.15.94-.09 1.61-.13 2-.13.3 0 .73.01 1.32.03zM140.38 98.41c3.67 3.56 6.41 7.64 8.22 12.26 1.81 4.62 2.71 8.96 2.71 13.03 0 7.68-1.18 13.88-3.53 18.58-3.56 7.11-8.35 12.36-14.38 15.74-6.03 3.38-13.03 5.08-21.01 5.08-8.96 0-16.55-2.01-22.78-6.02s-10.68-8.57-13.35-13.68c-2.67-5.1-4-11.44-4-19.01 0-3.84.63-7.7 1.89-11.57 1.26-3.87 3-7.24 5.21-10.11 2.21-2.87 4.64-5.28 7.28-7.23 3.85-2.75 7.71-4.72 11.58-5.89s8.57-1.76 14.08-1.76c12 0 21.36 3.53 28.08 10.58zm-47.04 29.73c.52 7.12.89 11.23 1.12 12.32.74 3.85 1.92 7.15 3.53 9.91 1.09 1.78 2.9 3.36 5.42 4.74 2.52 1.38 5.53 2.07 9.03 2.07 4.19 0 7.71-1.33 10.58-4.01 2.87-2.67 4.93-6.85 6.19-12.53.8-3.73 1.2-9.85 1.2-18.35 0-10.45-1.72-17.84-5.16-22.18s-7.97-6.5-13.59-6.5c-4.42 0-8.07 1.24-10.97 3.7-2.9 2.47-4.92 6.12-6.06 10.94-.75 3.09-1.18 9.72-1.29 19.89zM149.8 91.53c.63-.23 1.15-.4 1.55-.52h25.63l1.89.17.17 5.76-.26 8.42.09 4.38-.09 12.97v8.85c0 5.78.31 10.34.95 13.66.86 2.52 2.25 4.42 4.17 5.71s4.26 1.93 7.01 1.93c2.58 0 4.67-.26 6.28-.77 1.6-.51 3.45-1.49 5.55-2.92 2.09-1.43 3.43-2.46 4-3.09 1.66-1.83 2.81-3.52 3.44-5.07l.6-21.38c.11-2.23.17-4.06.17-5.5 0-1.49-.04-3.36-.13-5.62-.09-2.26-.13-3.53-.13-3.82l.09-3.18-.17-1.89c-1.38-.86-3.3-1.4-5.76-1.63l-5.76-.43c-.34-.17-.66-.37-.95-.6-.23-1.15-.34-2.01-.34-2.58 0-.69.09-1.66.26-2.92 1.9-.29 3.54-.43 4.92-.43l13.28.17c3.56 0 7.94-.06 13.11-.17l.17 6.44-.34 8.25.17 10.31-.09 14.77-.17 6.61.09 4.47c-.23 2.98-.34 4.67-.34 5.07 0 1.43.26 2.49.77 3.18.52.69 1 1.03 1.46 1.03l7.91-.26 1.03.17c.17 2.01.26 3.15.26 3.44 0 .4-.09 1.03-.26 1.89-3.04.12-5.22.32-6.54.6-6.14 1.38-12.85 3.41-20.13 6.11l-3.44-.17-.09-14.02c-.69.57-1.69 1.46-3.01 2.67-5.05 4.47-9.38 7.5-12.99 9.07-3.61 1.58-7.4 2.37-11.35 2.37-4.7 0-8.77-.97-12.21-2.92-3.44-1.95-5.96-4.35-7.57-7.22-1.2-2.23-2.01-5.44-2.41-9.62-.12-1.09-.17-6.7-.17-16.84l.09-2.75c.29-5.61.43-9.76.43-12.46 0-4.58-.09-7.65-.26-9.19-.06-.74-.34-1.6-.86-2.58-.8-.34-1.75-.6-2.84-.77-3.67-.63-5.96-1.23-6.88-1.81-.29-.17-.43-.54-.43-1.12 0-.34.04-.8.13-1.38.08-.57.18-1.52.3-2.84zM243.52 156.78c.74-.65 1.72-1.13 2.92-1.42 2.92-.63 5.71-1.77 8.34-3.44.52-1.37.77-6.01.77-13.91 0-14.48-.32-24.27-.95-29.37-.12-.92-.57-1.72-1.38-2.4-1.43-.74-3.38-1.4-5.85-1.98-1.15-.28-1.84-.92-2.06-1.89l-.26-3.18c4.24-.57 8.09-2.02 11.53-4.34 3.44-2.32 6.02-4.69 7.74-7.1.92-1.32 1.72-2.32 2.41-3.01l6.02-.17c.29 1.32.43 2.41.43 3.27 0 .63-.03 1.41-.09 2.32-.06 2.01-.09 3.67-.09 4.99 0 .63.03 3.01.09 7.14 2.35-4.01 4.07-6.71 5.16-8.09.52-.63 2.04-2.04 4.56-4.21 1.95-1.43 4.16-2.15 6.62-2.15 3.04 0 5.68 1.03 7.91 3.1s3.35 4.44 3.35 7.14c0 2.7-.85 5.12-2.54 7.27-1.69 2.15-3.94 3.23-6.75 3.23-2.47 0-5.05-1.03-7.74-3.1-1.61-1.26-2.9-1.89-3.87-1.89l-.6.09c-1.2.4-2.29 1.49-3.27 3.26-1.61 2.86-2.41 5.83-2.41 8.91l.17 2.31c.23 4.23.4 14.15.52 29.75.17 1.43.72 2.86 1.63 4.29 1.03.8 2.08 1.37 3.14 1.71 1.06.34 2.91.63 5.55.86 2.64.23 4.24.6 4.82 1.09.57.49.86 1.29.86 2.4 0 .64-.17 1.48-.52 2.53h-8.09L265.2 160c-4.13 0-7.89.17-11.27.52h-1.46c-.4 0-3.38.14-8.95.43-.17-.95-.26-1.66-.26-2.13 0-.48.09-1.16.26-2.04zM303.78 156.8c1.49-.69 2.87-1.15 4.13-1.38 3.15-.52 4.99-.95 5.51-1.29.86-.52 1.43-1.15 1.72-1.89.34-1.15.52-3.67.52-7.58v-7.49l.09-6.12-.26-9.04v-5.43c0-3.62-.29-6.57-.86-8.87-.23-.86-.95-1.72-2.15-2.58-1.61-1.15-4.33-2.27-8.17-3.36l-.09-4.13c.74-.23 1.42-.39 2.02-.47.6-.09 2.91-.65 6.92-1.68 3.15-1.15 5.19-1.95 6.11-2.41.29-.17.74-.43 1.38-.77.69-.57 1.46-1.15 2.32-1.72 1.72-1.2 3.78-3.3 6.19-6.28l4.64-.34-.17 9.72c-.12.98-.17 1.75-.17 2.32 0 .46.06 1.78.17 3.96 4.75-4.13 9.07-7 12.97-8.6 5.09-2.12 9.93-3.18 14.51-3.18 5.38 0 10.1 1.34 14.17 4.01 4.06 2.67 6.73 5.76 7.99 9.26 1.26 3.51 1.89 10.57 1.89 21.2l-.34 28.09c0 1.32.23 2.41.69 3.28.57.39 2.15.8 4.73 1.21l4.21.81c.52.73.77 1.64.77 2.71 0 .68-.03 1.61-.09 2.8l-16.86-1.2-4.99.17h-3.96l-11.35.77h-2.92c-.06-.72-.09-1.28-.09-1.66 0-1 .06-2.08.17-3.25.8-.17 2.81-.46 6.02-.86.86-.11 1.81-.31 2.84-.6 1.15-.46 1.81-.92 1.98-1.38.46-.98.69-2.84.69-5.6 0-4.82-.03-8.53-.09-11.11l.09-9.99c0-12.12-.77-19.67-2.32-22.65-2.17-4.31-5.43-6.46-9.78-6.46-3.2 0-6.52.82-9.95 2.46-3.43 1.64-6.98 4.12-10.64 7.45l-.17 1.46.17 5.42-.17 5.76.35 13.77-.17 2.15c0 9.35.38 14.63 1.13 15.83.75 1.2 3.61 2.55 8.59 4.02.17.98.26 1.69.26 2.15 0 .69-.2 1.75-.61 3.18-1.78.06-3.28.09-4.48.09-1.21 0-3.1-.19-5.69-.58l-9.22-.19c-4.6 0-11.23.2-19.91.6-.23-.56-.34-1.16-.34-1.78-.02-.47.01-1.37.07-2.73z"/><path d="M387.95 91.78c2.01-.34 3.67-.51 4.99-.51.69 0 1.46.03 2.32.09 5.22.34 9.46.52 12.73.52h4.47l12.21-.77c.46.34.86.72 1.2 1.12-.17 2.52-.32 4.13-.43 4.82-.86.17-1.52.29-1.98.34-1.32.17-2.29.33-2.92.47-.63.14-1.32.27-2.06.39-.86.23-1.35.63-1.46 1.21.34 1.38.69 2.53 1.03 3.44l4.13 8.45c3.27 8.05 6.62 15.46 10.06 22.24l4.82 9.91c.34-.69 2.55-6.35 6.62-16.98 4.87-12.58 7.51-19.68 7.91-21.29.23-.86.34-1.61.34-2.24 0-.57-.17-1.52-.52-2.84-1.26-.92-2.29-1.5-3.1-1.76-.8-.26-2.67-.56-5.59-.9l-2.75-.69-.26-1.18c-.06-.56-.09-.99-.09-1.27 0-.45.09-1.18.26-2.2 1.72-.11 2.95-.17 3.7-.17l6.97.43 4.64.17c1.95 0 5.33-.29 10.15-.86 2.98-.34 5.22-.54 6.71-.6.11 1.42.17 2.49.17 3.23 0 .34-.03.85-.09 1.53-1.03.51-2.18.91-3.44 1.19-2.06.51-3.87 1-5.42 1.45-.83.69-1.38 1.26-1.65 1.72-.98 2.18-2.96 6.95-5.95 14.29l-6.21 16.62-14.39 34.27-9.91 22.73c-2.18 4.36-4.73 8.11-7.66 11.27-1.09 1.2-2.35 2.12-3.78 2.75-2.35.92-5.02 1.38-8 1.38-.29 0-1.86-.2-4.73-.6-2.35-.57-4.39-1.81-6.11-3.7-1.2-1.38-1.81-2.84-1.81-4.39 0-3.15 1.35-6.08 4.04-8.77 2.41-1.49 4.19-2.24 5.33-2.24 2.58 0 5.59 1.35 9.03 4.04 1.61 1.32 2.9 1.98 3.87 1.98.97 0 1.75-.55 2.32-1.63 4.99-9.69 8.2-16.57 9.63-20.64l-15.87-35.05c-5.95-14.07-10.49-23.91-13.64-29.54-1.62-2.87-2.77-4.56-3.43-5.08-.67-.52-1.69-.98-3.08-1.38-.75-.17-1.62-.52-2.6-1.03-.23-1.32-.49-2.56-.72-3.74z"/></svg>